<svg width="22" height="22" viewBox="0 0 22 22" fill="none" xmlns="http://www.w3.org/2000/svg">
<path fill-rule="evenodd" clip-rule="evenodd" d="M3.96105 5.56286L8.8746 0.854038C10.0628 -0.284678 11.9374 -0.28468 13.1256 0.854037L18.0391 5.56286H20.8828C21.5626 5.56286 22.0848 6.16495 21.9887 6.83791L20.3477 18.3246C20.1119 19.9756 18.6979 21.2019 17.0302 21.2019H4.97003C3.3023 21.2019 1.88835 19.9756 1.6525 18.3246L0.0115514 6.83791C-0.0845858 6.16495 0.437602 5.56286 1.11739 5.56286H3.96105ZM10.0339 2.06381C10.5741 1.54621 11.4261 1.54621 11.9662 2.06381L15.6174 5.56286H6.38277L10.0339 2.06381ZM1.76139 7.23847L3.31127 18.0876C3.42919 18.9131 4.13617 19.5263 4.97003 19.5263H17.0302C17.864 19.5263 18.571 18.9131 18.6889 18.0876L20.2388 7.23847H1.76139ZM6.53181 10.3104C6.99452 10.3104 7.36962 10.6855 7.36962 11.1482V15.6165C7.36962 16.0792 6.99452 16.4543 6.53181 16.4543C6.06911 16.4543 5.69401 16.0792 5.69401 15.6165V11.1482C5.69401 10.6855 6.06911 10.3104 6.53181 10.3104ZM11.8379 11.1482C11.8379 10.6855 11.4628 10.3104 11.0001 10.3104C10.5374 10.3104 10.1623 10.6855 10.1623 11.1482V15.6165C10.1623 16.0792 10.5374 16.4543 11.0001 16.4543C11.4628 16.4543 11.8379 16.0792 11.8379 15.6165V11.1482ZM16.3062 11.1482C16.3062 10.6855 15.9311 10.3104 15.4684 10.3104C15.0057 10.3104 14.6306 10.6855 14.6306 11.1482V15.6165C14.6306 16.0792 15.0057 16.4543 15.4684 16.4543C15.9311 16.4543 16.3062 16.0792 16.3062 15.6165V11.1482Z" fill="black"/>
</svg>
