<svg width="22" height="22" viewBox="0 0 22 22" fill="none" xmlns="http://www.w3.org/2000/svg">
<path d="M7.36951 11.1482C7.36951 10.6855 6.99441 10.3104 6.5317 10.3104C6.069 10.3104 5.6939 10.6855 5.6939 11.1482V15.6165C5.6939 16.0792 6.069 16.4543 6.5317 16.4543C6.99441 16.4543 7.36951 16.0792 7.36951 15.6165V11.1482Z" fill="white"/>
<path d="M11 10.3104C11.4627 10.3104 11.8378 10.6855 11.8378 11.1482V15.6165C11.8378 16.0792 11.4627 16.4543 11 16.4543C10.5373 16.4543 10.1622 16.0792 10.1622 15.6165V11.1482C10.1622 10.6855 10.5373 10.3104 11 10.3104Z" fill="white"/>
<path d="M16.3061 11.1482C16.3061 10.6855 15.931 10.3104 15.4683 10.3104C15.0056 10.3104 14.6305 10.6855 14.6305 11.1482V15.6165C14.6305 16.0792 15.0056 16.4543 15.4683 16.4543C15.931 16.4543 16.3061 16.0792 16.3061 15.6165V11.1482Z" fill="white"/>
<path fill-rule="evenodd" clip-rule="evenodd" d="M8.87449 0.854038L3.96094 5.56286H1.11728C0.437488 5.56286 -0.0847002 6.16495 0.011437 6.83791L1.65239 18.3246C1.88824 19.9756 3.30219 21.2019 4.96992 21.2019H17.0301C18.6978 21.2019 20.1118 19.9756 20.3476 18.3246L21.9886 6.83791C22.0847 6.16495 21.5625 5.56286 20.8827 5.56286H18.039L13.1255 0.854037C11.9373 -0.28468 10.0627 -0.284678 8.87449 0.854038ZM11.9661 2.06381C11.426 1.54621 10.574 1.54621 10.0338 2.06381L6.38266 5.56286H15.6173L11.9661 2.06381ZM3.31116 18.0876L1.76128 7.23847H20.2387L18.6888 18.0876C18.5709 18.9131 17.8639 19.5263 17.0301 19.5263H4.96992C4.13606 19.5263 3.42908 18.9131 3.31116 18.0876Z" fill="white"/>
</svg>
