<svg width="22" height="22" viewBox="0 0 22 22" fill="none" xmlns="http://www.w3.org/2000/svg">
<path d="M7.62966 11.4838C7.62966 11.0317 7.26315 10.6652 6.81105 10.6652C6.35894 10.6652 5.99243 11.0317 5.99243 11.4838V15.8497C5.99243 16.3018 6.35894 16.6684 6.81105 16.6684C7.26315 16.6684 7.62966 16.3018 7.62966 15.8497V11.4838Z" fill="black"/>
<path d="M11.177 10.6652C11.6291 10.6652 11.9956 11.0317 11.9956 11.4838V15.8497C11.9956 16.3018 11.6291 16.6684 11.177 16.6684C10.7249 16.6684 10.3584 16.3018 10.3584 15.8497V11.4838C10.3584 11.0317 10.7249 10.6652 11.177 10.6652Z" fill="black"/>
<path d="M16.3615 11.4838C16.3615 11.0317 15.995 10.6652 15.5429 10.6652C15.0908 10.6652 14.7243 11.0317 14.7243 11.4838V15.8497C14.7243 16.3018 15.0908 16.6684 15.5429 16.6684C15.995 16.6684 16.3615 16.3018 16.3615 15.8497V11.4838Z" fill="black"/>
<path fill-rule="evenodd" clip-rule="evenodd" d="M9.10017 1.42542L4.29916 6.02638H1.52064C0.856423 6.02638 0.346195 6.61468 0.44013 7.27222L2.0435 18.4958C2.27395 20.1089 3.65551 21.3072 5.28504 21.3072H17.0689C18.6985 21.3072 20.08 20.1089 20.3105 18.4958L21.9139 7.27222C22.0078 6.61468 21.4976 6.02638 20.8333 6.02638H18.0548L13.2538 1.42542C12.0928 0.312783 10.2612 0.312785 9.10017 1.42542ZM12.121 2.60748C11.5933 2.10173 10.7607 2.10173 10.233 2.60748L6.66542 6.02638H15.6885L12.121 2.60748ZM3.66427 18.2642L2.14989 7.66361H20.2041L18.6897 18.2642C18.5745 19.0708 17.8837 19.6699 17.0689 19.6699H5.28504C4.47027 19.6699 3.77949 19.0708 3.66427 18.2642Z" fill="black"/>
</svg>
