<svg width="21" height="20" viewBox="0 0 21 20" fill="none" xmlns="http://www.w3.org/2000/svg">
<path fill-rule="evenodd" clip-rule="evenodd" d="M17.4029 15.7167C18.7986 14.0679 19.6402 11.935 19.6402 9.60562C19.6402 4.37899 15.4032 0.141968 10.1765 0.141968C4.94991 0.141968 0.712891 4.37899 0.712891 9.60562C0.712891 14.8323 4.94991 19.0693 10.1765 19.0693C12.5059 19.0693 14.6388 18.2277 16.2876 16.832L19.0826 19.6269C19.3905 19.9349 19.8899 19.9349 20.1979 19.6269C20.5058 19.3189 20.5058 18.8196 20.1979 18.5116L17.4029 15.7167ZM18.0629 9.60562C18.0629 13.9612 14.5321 17.492 10.1765 17.492C5.82102 17.492 2.29017 13.9612 2.29017 9.60562C2.29017 5.2501 5.82102 1.71924 10.1765 1.71924C14.5321 1.71924 18.0629 5.2501 18.0629 9.60562Z" fill="black"/>
</svg>
