<svg width="20" height="22" viewBox="0 0 20 22" fill="none" xmlns="http://www.w3.org/2000/svg">
<path fill-rule="evenodd" clip-rule="evenodd" d="M15.437 5.67898C15.437 8.69303 12.9937 11.1364 9.97962 11.1364C6.96557 11.1364 4.5222 8.69303 4.5222 5.67898C4.5222 2.66493 6.96557 0.221558 9.97962 0.221558C12.9937 0.221558 15.437 2.66493 15.437 5.67898ZM13.7998 5.67898C13.7998 7.78881 12.0895 9.49917 9.97962 9.49917C7.86979 9.49917 6.15943 7.78881 6.15943 5.67898C6.15943 3.56914 7.86979 1.85878 9.97962 1.85878C12.0895 1.85878 13.7998 3.56914 13.7998 5.67898Z" fill="black"/>
<path d="M2.06618 19.8682C2.06618 17.3063 4.14305 15.2294 6.70499 15.2294H13.2539C15.8158 15.2294 17.8927 17.3063 17.8927 19.8682V20.9597C17.8927 21.4118 18.2592 21.7783 18.7113 21.7783C19.1634 21.7783 19.5299 21.4118 19.5299 20.9597V19.8682C19.5299 16.4021 16.72 13.5922 13.2539 13.5922H6.70499C3.23883 13.5922 0.428955 16.4021 0.428955 19.8682V20.9597C0.428955 21.4118 0.795461 21.7783 1.24757 21.7783C1.69968 21.7783 2.06618 21.4118 2.06618 20.9597V19.8682Z" fill="black"/>
</svg>
