<svg width="35" height="35" viewBox="0 0 35 35" fill="none" xmlns="http://www.w3.org/2000/svg">
<circle cx="17.5" cy="17.5" r="17.5" fill="black"/>
<g clip-path="url(#clip0_1_163)">
<path d="M19.5583 23.6457L19.5424 16.8986L15.5585 16.7645L15.0837 23.4999C14.721 23.5649 14.4505 23.8707 14.4289 24.2391L13.9702 28.3996C13.9136 28.923 14.229 29.3811 14.6517 29.3954L19.5906 29.5592C20.0158 29.5711 20.3537 29.1423 20.3401 28.6092L20.1764 24.4423C20.1861 24.0639 19.928 23.7311 19.5587 23.6457L19.5583 23.6457Z" fill="white"/>
<path d="M21.2754 9.98921L14.668 9.75704C14.4037 9.74997 14.1568 9.62553 13.9936 9.41815C13.6562 8.96294 13.1286 8.68798 12.5619 8.67193C11.5282 8.63834 10.6618 9.44823 10.6258 10.4819L10.5471 12.8188C10.5153 13.852 11.324 14.7171 12.357 14.7549C12.9218 14.7752 13.4642 14.5375 13.8331 14.1091C14.0094 13.9126 14.2653 13.805 14.5288 13.8163C14.6758 13.8213 14.8148 13.8843 14.9151 13.9917C15.0154 14.099 15.069 14.2419 15.0641 14.3889L15.0169 15.7881L20.1476 15.9609L20.1879 14.5493C20.1922 14.4029 20.2552 14.2639 20.3619 14.1642C20.4687 14.0644 20.6115 14.0109 20.7579 14.0164L24.771 14.1515L24.7777 13.7359C24.8082 12.7756 24.4572 11.8415 23.8006 11.139C23.1439 10.4366 22.2354 10.0235 21.2753 9.98938L21.2754 9.98921Z" fill="white"/>
</g>
<defs>
<clipPath id="clip0_1_163">
<rect width="22" height="22" fill="white" transform="translate(17.5236 2.45239) rotate(46.9289)"/>
</clipPath>
</defs>
</svg>
